<svg xmlns="http://www.w3.org/2000/svg" xmlns:xlink="http://www.w3.org/1999/xlink" width="34" height="36" viewBox="0 0 34 36">
    <defs>
        <path id="prefix__a" d="M0.024 0.051L7.251 0.051 7.251 22.973 0.024 22.973z"/>
    </defs>
    <g fill="none" fill-rule="evenodd">
        <g transform="translate(1.034 11.234)">
            <mask id="prefix__b" fill="#fff">
                <use xlink:href="#prefix__a"/>
            </mask>
            <path fill="#FFF" d="M6.096.051H1.179C.54.051.024.568.024 1.206v20.612c0 .638.517 1.155 1.155 1.155h4.917c.638 0 1.155-.517 1.155-1.155V1.206C7.25.568 6.734.051 6.096.051" mask="url(#prefix__b)"/>
        </g>
        <path fill="#FFF" d="M4.671 0C2.091 0 0 2.091 0 4.671s2.091 4.671 4.671 4.671 4.671-2.091 4.671-4.67C9.342 2.091 7.251 0 4.672 0M25.58 10.94c-3.815 0-5.607 1.396-6.813 3.205v-1.798c0-.586-.475-1.062-1.062-1.062h-5.103c-.586 0-1.062.476-1.062 1.062v20.798c0 .586.476 1.062 1.062 1.062h5.103c.587 0 1.062-.476 1.062-1.062V21.994c.133-1.499.792-4.837 4.044-4.837 4.192 0 3.769 4.878 3.769 6.32v9.668c0 .586.476 1.062 1.062 1.062h5.276c.587 0 1.062-.476 1.062-1.062v-9.976c0-4.337.049-12.23-8.4-12.23"/>
    </g>
</svg>
