<svg xmlns="http://www.w3.org/2000/svg" width="34" height="28" viewBox="0 0 34 28">
    <path fill="#FFF" fill-rule="evenodd" d="M34 3.27c-1.264.555-2.612.923-4.016 1.101 1.445-.863 2.548-2.218 3.066-3.853-1.347.804-2.835 1.371-4.42 1.688C27.35.844 25.528 0 23.54 0c-3.86 0-6.966 3.132-6.966 6.972 0 .553.047 1.084.161 1.59C10.94 8.279 5.812 5.502 2.367 1.27c-.601 1.043-.954 2.237-.954 3.523 0 2.414 1.243 4.554 3.096 5.793-1.12-.021-2.218-.347-3.149-.859v.077c0 3.387 2.416 6.2 5.585 6.849-.568.155-1.186.23-1.828.23-.446 0-.897-.026-1.32-.12.904 2.76 3.466 4.79 6.513 4.856-2.371 1.855-5.382 2.973-8.642 2.973-.572 0-1.12-.026-1.668-.096 3.088 1.991 6.747 3.128 10.693 3.128C23.519 27.625 30.532 17 30.532 7.79c0-.308-.01-.605-.026-.9C31.89 5.907 33.052 4.68 34 3.27"/>
</svg>
